<svg xmlns="http://www.w3.org/2000/svg" viewBox="0 0 220 220">
  <ellipse cx="110" cy="190" rx="67" ry="18" fill="#17372b" opacity=".18"/>
  <path d="M54 92c0-48 27-72 56-72s56 24 56 72v45c0 34-24 56-56 56s-56-22-56-56z" fill="#8a694a"/>
  <circle cx="86" cy="82" r="27" fill="#f7e2a3"/>
  <circle cx="134" cy="82" r="27" fill="#f7e2a3"/>
  <circle cx="86" cy="82" r="10" fill="#26302b"/>
  <circle cx="134" cy="82" r="10" fill="#26302b"/>
  <path d="M103 105l7 14 7-14z" fill="#f0b646"/>
  <path d="M58 35l34 20M162 35l-34 20" stroke="#6a4f37" stroke-width="18" stroke-linecap="round"/>
  <path d="M76 142c20 15 47 15 68 0" fill="none" stroke="#6a4f37" stroke-width="7" stroke-linecap="round"/>
</svg>
