<svg xmlns="http://www.w3.org/2000/svg" viewBox="0 0 240 220" role="img" aria-label="happy parrot">
  <defs><filter id="s" x="-20%" y="-20%" width="140%" height="140%"><feDropShadow dx="0" dy="8" stdDeviation="8" flood-opacity=".22"/></filter></defs>
  <g filter="url(#s)">
    <ellipse cx="122" cy="122" rx="58" ry="72" fill="#35c77d"/>
    <path d="M85 118c-48 13-66 58-39 76 34-16 56-37 63-66z" fill="#2da8ff"/>
    <path d="M158 116c50 9 74 49 51 72-40-11-63-31-77-60z" fill="#ffca42"/>
    <circle cx="120" cy="80" r="46" fill="#35c77d"/>
    <path d="M123 76c28-8 52 1 59 20-21 15-42 16-63 2z" fill="#ff8b35"/>
    <circle cx="103" cy="74" r="10" fill="#20323b"/>
    <path d="M84 46c22-25 50-25 74-3-31 1-52 4-74 3z" fill="#ff5a74"/>
  </g>
</svg>
