<svg xmlns="http://www.w3.org/2000/svg" viewBox="0 0 240 220" role="img" aria-label="happy monkey">
  <defs><filter id="s" x="-20%" y="-20%" width="140%" height="140%"><feDropShadow dx="0" dy="8" stdDeviation="8" flood-opacity=".24"/></filter></defs>
  <g filter="url(#s)">
    <path d="M165 132c45-19 65 10 48 39-17 30-60 35-84 9" fill="none" stroke="#9b5a31" stroke-width="18" stroke-linecap="round"/>
    <ellipse cx="119" cy="132" rx="77" ry="62" fill="#b86f37"/>
    <circle cx="58" cy="95" r="32" fill="#b86f37"/><circle cx="182" cy="95" r="32" fill="#b86f37"/>
    <circle cx="58" cy="95" r="19" fill="#f4b46f"/><circle cx="182" cy="95" r="19" fill="#f4b46f"/>
    <ellipse cx="119" cy="118" rx="58" ry="50" fill="#ffd18a"/>
    <circle cx="96" cy="110" r="9" fill="#3b2214"/><circle cx="142" cy="110" r="9" fill="#3b2214"/>
    <ellipse cx="119" cy="130" rx="12" ry="8" fill="#6b331c"/>
    <path d="M95 145c18 20 47 20 65 0" fill="none" stroke="#6b331c" stroke-width="9" stroke-linecap="round"/>
    <path d="M79 54c25-36 66-39 90-1-30-7-57-6-90 1z" fill="#74401f"/>
  </g>
</svg>
