<svg xmlns="http://www.w3.org/2000/svg" viewBox="0 0 96 58" role="img" aria-label="green leaf projectile">
  <defs>
    <linearGradient id="leafBody" x1="19" y1="7" x2="80" y2="51" gradientUnits="userSpaceOnUse">
      <stop stop-color="#d8ffd7"/>
      <stop offset="0.42" stop-color="#59e28b"/>
      <stop offset="1" stop-color="#138f56"/>
    </linearGradient>
    <linearGradient id="leafTrail" x1="0" y1="29" x2="36" y2="29" gradientUnits="userSpaceOnUse">
      <stop stop-color="#ffffff" stop-opacity="0"/>
      <stop offset="1" stop-color="#e9fff0" stop-opacity="0.74"/>
    </linearGradient>
  </defs>
  <path d="M5 24c11-7 23-10 35-8l-5 26C22 42 12 37 5 31c-3-2-3-5 0-7Z" fill="url(#leafTrail)"/>
  <path d="M19 30C34 7 66 3 89 25 72 52 40 57 19 30Z" fill="url(#leafBody)"/>
  <path d="M25 32c18-2 36-5 56-9" fill="none" stroke="#f2ffe7" stroke-width="4" stroke-linecap="round" opacity=".72"/>
  <path d="M42 19c7 3 13 6 18 11" fill="none" stroke="#fff9c9" stroke-width="5" stroke-linecap="round" opacity=".58"/>
</svg>
