<svg xmlns="http://www.w3.org/2000/svg" viewBox="0 0 1254 1254" role="img" aria-label="Animal Rope Rescue cover">
  <defs>
    <linearGradient id="sky" x1="0" y1="0" x2="0" y2="1">
      <stop stop-color="#7ed8ff"/>
      <stop offset="0.55" stop-color="#b9f1ff"/>
      <stop offset="1" stop-color="#fff0b7"/>
    </linearGradient>
    <linearGradient id="leaf" x1="0" y1="0" x2="1" y2="1">
      <stop stop-color="#7ee35f"/>
      <stop offset="1" stop-color="#1b9f66"/>
    </linearGradient>
    <linearGradient id="fruit" x1="0" y1="0" x2="1" y2="1">
      <stop stop-color="#fff37b"/>
      <stop offset="0.55" stop-color="#ffb23d"/>
      <stop offset="1" stop-color="#ff6f3a"/>
    </linearGradient>
    <filter id="shadow" x="-20%" y="-20%" width="140%" height="145%">
      <feDropShadow dx="0" dy="18" stdDeviation="18" flood-color="#143830" flood-opacity="0.28"/>
    </filter>
  </defs>
  <rect width="1254" height="1254" rx="96" fill="#fff1c9"/>
  <rect x="70" y="70" width="1114" height="1114" rx="80" fill="url(#sky)"/>
  <circle cx="1030" cy="185" r="96" fill="#fff176" opacity="0.92"/>
  <path d="M0 850c205-92 386-105 568-45 236 79 403 18 686-87v536H0z" fill="#58c873"/>
  <path d="M0 970c255-104 468-103 677-41 211 63 351 29 577-67v392H0z" fill="#269c5d"/>
  <path d="M100 264c159-118 312-145 458-80 190 85 320 38 453-54 40-28 91 7 82 55-24 126-106 228-244 303-230 126-516 115-737-29-68-44-78-145-12-195z" fill="url(#leaf)" filter="url(#shadow)"/>
  <path d="M190 310c170 48 334 58 493 4 92-31 187-83 273-151" fill="none" stroke="#e0ffd2" stroke-width="18" stroke-linecap="round" opacity="0.55"/>
  <path d="M643 300c-11 123-41 225-91 308" fill="none" stroke="#8b5a2c" stroke-width="22" stroke-linecap="round"/>
  <circle cx="537" cy="661" r="94" fill="url(#fruit)" filter="url(#shadow)"/>
  <path d="M501 611c47-42 106-39 146 6" fill="none" stroke="#fff6a8" stroke-width="20" stroke-linecap="round" opacity="0.8"/>
  <g filter="url(#shadow)">
    <ellipse cx="325" cy="880" rx="150" ry="95" fill="#ffbf61"/>
    <circle cx="247" cy="818" r="78" fill="#ffcf7a"/>
    <circle cx="223" cy="793" r="25" fill="#f59d45"/>
    <circle cx="282" cy="793" r="25" fill="#f59d45"/>
    <circle cx="225" cy="819" r="12" fill="#442316"/>
    <circle cx="272" cy="819" r="12" fill="#442316"/>
    <path d="M236 852c25 21 58 20 82-2" fill="none" stroke="#6a3019" stroke-width="12" stroke-linecap="round"/>
    <path d="M408 840c80-54 143-36 175 24" fill="none" stroke="#ffbf61" stroke-width="30" stroke-linecap="round"/>
  </g>
  <g filter="url(#shadow)">
    <ellipse cx="882" cy="880" rx="128" ry="88" fill="#ffd35b"/>
    <circle cx="810" cy="820" r="70" fill="#ffe28a"/>
    <circle cx="955" cy="820" r="70" fill="#ffe28a"/>
    <circle cx="840" cy="835" r="12" fill="#432515"/>
    <circle cx="916" cy="835" r="12" fill="#432515"/>
    <path d="M850 870c25 18 55 17 78-2" fill="none" stroke="#73411f" stroke-width="12" stroke-linecap="round"/>
    <path d="M846 780c23-28 50-42 85-44" fill="none" stroke="#f19631" stroke-width="18" stroke-linecap="round"/>
  </g>
  <rect x="178" y="105" width="536" height="112" rx="44" fill="#ffffff" opacity="0.92" filter="url(#shadow)"/>
  <text x="446" y="178" text-anchor="middle" font-family="Arial, sans-serif" font-size="54" font-weight="900" fill="#1e5a3d">Animal Rope Rescue</text>
  <circle cx="1048" cy="1045" r="88" fill="#ffd75f" filter="url(#shadow)"/>
  <path d="M1024 996l70 49-70 49z" fill="#27323d"/>
</svg>
