<svg xmlns="http://www.w3.org/2000/svg" viewBox="0 0 1024 1024">
  <defs>
    <linearGradient id="sky" x1="0" x2="0" y1="0" y2="1">
      <stop offset="0" stop-color="#8bdcff"/>
      <stop offset=".55" stop-color="#fff0b5"/>
      <stop offset="1" stop-color="#91dc85"/>
    </linearGradient>
    <linearGradient id="sign" x1="0" x2="1">
      <stop offset="0" stop-color="#ffb85c"/>
      <stop offset="1" stop-color="#ff6f9c"/>
    </linearGradient>
    <filter id="shadow" x="-20%" y="-20%" width="140%" height="140%">
      <feDropShadow dx="0" dy="18" stdDeviation="16" flood-color="#50311b" flood-opacity=".28"/>
    </filter>
  </defs>
  <rect width="1024" height="1024" fill="url(#sky)"/>
  <circle cx="132" cy="118" r="72" fill="#fff7b3"/>
  <g fill="#fff" opacity=".9">
    <ellipse cx="742" cy="126" rx="92" ry="38"/>
    <ellipse cx="820" cy="126" rx="70" ry="30"/>
    <ellipse cx="208" cy="220" rx="88" ry="32"/>
    <ellipse cx="284" cy="222" rx="62" ry="26"/>
  </g>
  <path d="M0 670 C160 604 276 650 416 590 C574 522 734 564 1024 476 L1024 1024 L0 1024 Z" fill="#64bd60"/>
  <path d="M0 742 C188 690 340 734 504 668 C698 590 820 650 1024 574 L1024 1024 L0 1024 Z" fill="#45a64e"/>
  <g filter="url(#shadow)">
    <rect x="118" y="110" width="788" height="178" rx="56" fill="url(#sign)"/>
    <text x="512" y="214" text-anchor="middle" font-family="Arial Rounded MT Bold, Arial, sans-serif" font-size="82" font-weight="900" fill="#fff">Animal Zoo Idle</text>
    <text x="512" y="264" text-anchor="middle" font-family="Arial Rounded MT Bold, Arial, sans-serif" font-size="35" font-weight="900" fill="#5b321c">Grow habitats every day</text>
  </g>
  <g filter="url(#shadow)">
    <rect x="94" y="510" width="250" height="310" rx="42" fill="#ffe19b"/>
    <rect x="386" y="454" width="252" height="366" rx="42" fill="#c4f0ff"/>
    <rect x="680" y="526" width="250" height="294" rx="42" fill="#ffd1e4"/>
    <path d="M94 592 C160 544 256 544 344 596 L344 820 L94 820 Z" fill="#ffbf57"/>
    <path d="M386 540 C474 494 562 496 638 546 L638 820 L386 820 Z" fill="#52b86b"/>
    <path d="M680 604 C760 558 842 560 930 610 L930 820 L680 820 Z" fill="#75caee"/>
  </g>
  <g filter="url(#shadow)">
    <circle cx="218" cy="638" r="82" fill="#f6a13d"/>
    <circle cx="190" cy="610" r="34" fill="#c8792f"/>
    <circle cx="246" cy="610" r="34" fill="#c8792f"/>
    <circle cx="194" cy="630" r="10" fill="#2c1b18"/>
    <circle cx="242" cy="630" r="10" fill="#2c1b18"/>
    <path d="M196 670 Q218 690 242 670" fill="none" stroke="#2c1b18" stroke-width="9" stroke-linecap="round"/>
    <circle cx="510" cy="604" r="76" fill="#d7a260"/>
    <circle cx="474" cy="578" r="24" fill="#9b6a3f"/>
    <circle cx="546" cy="578" r="24" fill="#9b6a3f"/>
    <circle cx="486" cy="598" r="9" fill="#2c1b18"/>
    <circle cx="534" cy="598" r="9" fill="#2c1b18"/>
    <path d="M490 640 Q510 658 532 640" fill="none" stroke="#2c1b18" stroke-width="8" stroke-linecap="round"/>
    <circle cx="804" cy="650" r="76" fill="#ff9ab8"/>
    <circle cx="776" cy="604" r="28" fill="#ffcad8"/>
    <circle cx="832" cy="604" r="28" fill="#ffcad8"/>
    <circle cx="780" cy="638" r="9" fill="#2c1b18"/>
    <circle cx="828" cy="638" r="9" fill="#2c1b18"/>
    <path d="M784 680 Q806 698 830 680" fill="none" stroke="#2c1b18" stroke-width="8" stroke-linecap="round"/>
  </g>
  <g fill="#fff4b8" opacity=".95">
    <path d="M130 374 l18 38 42 6-30 30 7 42-37-20-37 20 7-42-30-30 42-6z"/>
    <path d="M854 356 l14 28 31 5-22 22 5 31-28-15-28 15 5-31-22-22 31-5z"/>
  </g>
</svg>
