<svg xmlns="http://www.w3.org/2000/svg" viewBox="0 0 240 220" role="img" aria-label="happy rabbit">
  <defs><filter id="s" x="-20%" y="-20%" width="140%" height="140%"><feDropShadow dx="0" dy="8" stdDeviation="8" flood-opacity=".22"/></filter></defs>
  <g filter="url(#s)">
    <path d="M80 80C47 26 57 2 85 7c24 4 33 43 31 83z" fill="#f7f7ff"/>
    <path d="M160 80c33-54 23-78-5-73-24 4-33 43-31 83z" fill="#f7f7ff"/>
    <path d="M88 74C69 35 73 20 87 20c13 0 18 31 18 57z" fill="#ffb9c9"/>
    <path d="M152 74c19-39 15-54 1-54-13 0-18 31-18 57z" fill="#ffb9c9"/>
    <ellipse cx="120" cy="132" rx="78" ry="66" fill="#f7f7ff"/>
    <ellipse cx="120" cy="143" rx="46" ry="34" fill="#ffe7ef"/>
    <circle cx="94" cy="119" r="10" fill="#2d3140"/><circle cx="146" cy="119" r="10" fill="#2d3140"/>
    <path d="M120 133l-12 10h24z" fill="#ff7da0"/>
    <path d="M92 153c18 21 38 21 56 0" fill="none" stroke="#6c5262" stroke-width="8" stroke-linecap="round"/>
  </g>
</svg>
