<svg xmlns="http://www.w3.org/2000/svg" viewBox="0 0 96 58" role="img" aria-label="purple feather projectile">
  <defs>
    <linearGradient id="featherBody" x1="20" y1="6" x2="78" y2="50" gradientUnits="userSpaceOnUse">
      <stop stop-color="#f4dcff"/>
      <stop offset="0.38" stop-color="#9f86ff"/>
      <stop offset="1" stop-color="#4d3ca6"/>
    </linearGradient>
    <linearGradient id="featherTrail" x1="2" y1="29" x2="42" y2="29" gradientUnits="userSpaceOnUse">
      <stop stop-color="#ffffff" stop-opacity="0"/>
      <stop offset="1" stop-color="#f7edff" stop-opacity="0.72"/>
    </linearGradient>
  </defs>
  <path d="M4 28c12-9 26-12 40-10l-7 26C23 43 12 38 4 32c-2-1-2-3 0-4Z" fill="url(#featherTrail)"/>
  <path d="M33 10c25-8 52 4 56 18-10 16-39 25-62 16-13-5-15-27 6-34Z" fill="url(#featherBody)"/>
  <path d="M28 42c17-7 35-15 55-15" fill="none" stroke="#fff8db" stroke-width="4" stroke-linecap="round" opacity=".78"/>
  <path d="M37 17c10-1 21 2 32 8" fill="none" stroke="#ffffff" stroke-width="6" stroke-linecap="round" opacity=".58"/>
</svg>
