<svg xmlns="http://www.w3.org/2000/svg" viewBox="0 0 96 58" role="img" aria-label="golden seed projectile">
  <defs>
    <linearGradient id="seedBody" x1="16" y1="8" x2="78" y2="48" gradientUnits="userSpaceOnUse">
      <stop stop-color="#fff7b8"/>
      <stop offset="0.45" stop-color="#ffd84f"/>
      <stop offset="1" stop-color="#f59e0b"/>
    </linearGradient>
    <linearGradient id="seedTrail" x1="0" y1="29" x2="35" y2="29" gradientUnits="userSpaceOnUse">
      <stop stop-color="#ffffff" stop-opacity="0"/>
      <stop offset="1" stop-color="#ffffff" stop-opacity="0.78"/>
    </linearGradient>
  </defs>
  <path d="M5 23c12-8 24-10 36-8l-4 27C25 43 14 38 5 31c-3-2-3-6 0-8Z" fill="url(#seedTrail)"/>
  <path d="M33 8c20-6 45 2 54 16 7 11 1 23-16 27-20 5-45-2-55-16C9 24 16 13 33 8Z" fill="url(#seedBody)"/>
  <path d="M31 13c16-4 34 0 45 8" fill="none" stroke="#fff8cf" stroke-width="7" stroke-linecap="round" opacity=".88"/>
  <circle cx="70" cy="26" r="8" fill="#fffbe0" opacity=".72"/>
</svg>
