<svg xmlns="http://www.w3.org/2000/svg" viewBox="0 0 1200 900" role="img" aria-label="Bubble Bakery cover">
  <defs>
    <linearGradient id="bg" x1="0" x2="0" y1="0" y2="1">
      <stop stop-color="#ffe9f6"/>
      <stop offset=".55" stop-color="#fff2b8"/>
      <stop offset="1" stop-color="#ffd2a1"/>
    </linearGradient>
    <filter id="shadow" x="-20%" y="-20%" width="140%" height="140%">
      <feDropShadow dx="0" dy="14" stdDeviation="10" flood-color="#8a4b20" flood-opacity=".22"/>
    </filter>
  </defs>
  <rect width="1200" height="900" rx="64" fill="url(#bg)"/>
  <circle cx="1010" cy="120" r="78" fill="#fff07a"/>
  <g opacity=".55" fill="#fff">
    <ellipse cx="210" cy="145" rx="132" ry="45"/>
    <ellipse cx="332" cy="138" rx="78" ry="31"/>
    <ellipse cx="785" cy="210" rx="148" ry="46"/>
    <ellipse cx="908" cy="206" rx="86" ry="32"/>
  </g>
  <path d="M0 610 C210 560 356 610 518 648 C720 696 920 635 1200 574 L1200 900 L0 900Z" fill="#f5a45f"/>
  <g filter="url(#shadow)">
    <rect x="104" y="86" width="992" height="138" rx="42" fill="#fff9db" stroke="#7a4324" stroke-width="9"/>
    <text x="600" y="172" text-anchor="middle" font-family="Arial Rounded MT Bold, Noto Sans TC, sans-serif" font-size="68" font-weight="900" fill="#6e3a1e">Bubble Bakery</text>
  </g>
  <g filter="url(#shadow)">
    <rect x="155" y="548" width="890" height="164" rx="52" fill="#8b4a2a"/>
    <rect x="178" y="505" width="844" height="110" rx="46" fill="#f5c071"/>
    <circle cx="280" cy="454" r="74" fill="#ff6b8b" stroke="#6e3a1e" stroke-width="9"/>
    <circle cx="432" cy="408" r="82" fill="#6ecbff" stroke="#6e3a1e" stroke-width="9"/>
    <circle cx="598" cy="442" r="88" fill="#ffd85e" stroke="#6e3a1e" stroke-width="9"/>
    <circle cx="760" cy="398" r="78" fill="#9be56f" stroke="#6e3a1e" stroke-width="9"/>
    <circle cx="908" cy="454" r="72" fill="#c58cff" stroke="#6e3a1e" stroke-width="9"/>
    <g fill="#fff" opacity=".55">
      <circle cx="254" cy="422" r="18"/>
      <circle cx="402" cy="374" r="20"/>
      <circle cx="568" cy="404" r="23"/>
      <circle cx="734" cy="366" r="18"/>
      <circle cx="884" cy="423" r="17"/>
    </g>
    <path d="M250 674c90 36 606 36 700 0" fill="none" stroke="#fff2c8" stroke-width="16" stroke-linecap="round"/>
  </g>
  <text x="600" y="804" text-anchor="middle" font-family="Arial Rounded MT Bold, Noto Sans TC, sans-serif" font-size="38" font-weight="900" fill="#6e3a1e">Tap matching bubbles and bake sweet orders.</text>
</svg>
