<svg xmlns="http://www.w3.org/2000/svg" viewBox="0 0 1200 800">
  <defs>
    <linearGradient id="sky" x1="0" x2="1" y1="0" y2="1">
      <stop offset="0" stop-color="#dff5ff"/>
      <stop offset="0.52" stop-color="#fff1b8"/>
      <stop offset="1" stop-color="#bdeba8"/>
    </linearGradient>
    <filter id="shadow" x="-20%" y="-20%" width="140%" height="140%">
      <feDropShadow dx="0" dy="16" stdDeviation="16" flood-color="#19304a" flood-opacity="0.25"/>
    </filter>
  </defs>
  <rect width="1200" height="800" rx="44" fill="url(#sky)"/>
  <circle cx="156" cy="126" r="78" fill="#fff7"/>
  <circle cx="1052" cy="132" r="96" fill="#fff6"/>
  <path d="M0 660c180-80 322-60 492-15 208 55 402 42 708-52v207H0z" fill="#72c66b"/>
  <path d="M0 702c250-88 472-42 650 0 204 48 358 26 550-36v134H0z" fill="#4dae58"/>
  <g filter="url(#shadow)">
    <rect x="214" y="112" width="772" height="542" rx="50" fill="#fffdf2" stroke="#28415a" stroke-width="12"/>
    <text x="600" y="198" text-anchor="middle" font-family="Arial, sans-serif" font-size="64" font-weight="900" fill="#28415a">GARDEN TILE MATCH</text>
    <g transform="translate(312 248)">
      <rect width="130" height="130" rx="22" fill="#ffffff" stroke="#d3c18a" stroke-width="8"/>
      <rect x="154" width="130" height="130" rx="22" fill="#ffffff" stroke="#d3c18a" stroke-width="8"/>
      <rect x="308" width="130" height="130" rx="22" fill="#ffffff" stroke="#d3c18a" stroke-width="8"/>
      <rect x="462" width="130" height="130" rx="22" fill="#ffffff" stroke="#d3c18a" stroke-width="8"/>
      <rect y="154" width="130" height="130" rx="22" fill="#ffffff" stroke="#d3c18a" stroke-width="8"/>
      <rect x="154" y="154" width="130" height="130" rx="22" fill="#ffffff" stroke="#d3c18a" stroke-width="8"/>
      <rect x="308" y="154" width="130" height="130" rx="22" fill="#ffffff" stroke="#d3c18a" stroke-width="8"/>
      <rect x="462" y="154" width="130" height="130" rx="22" fill="#ffffff" stroke="#d3c18a" stroke-width="8"/>
      <text x="65" y="89" text-anchor="middle" font-size="64">🌹</text>
      <text x="219" y="89" text-anchor="middle" font-size="64">🌻</text>
      <text x="373" y="89" text-anchor="middle" font-size="64">🦋</text>
      <text x="527" y="89" text-anchor="middle" font-size="64">🌹</text>
      <text x="65" y="243" text-anchor="middle" font-size="64">🍓</text>
      <text x="219" y="243" text-anchor="middle" font-size="64">🧺</text>
      <text x="373" y="243" text-anchor="middle" font-size="64">🌻</text>
      <text x="527" y="243" text-anchor="middle" font-size="64">🦋</text>
    </g>
    <text x="600" y="596" text-anchor="middle" font-family="Arial, sans-serif" font-size="38" font-weight="900" fill="#3b5c44">Relaxing matching for every day</text>
  </g>
</svg>
