<svg xmlns="http://www.w3.org/2000/svg" viewBox="0 0 128 128" role="img" aria-label="leaf cover">
  <defs>
    <linearGradient id="leaf" x1="0" x2="1" y1="0" y2="1">
      <stop offset="0" stop-color="#a6ec64"/>
      <stop offset="0.42" stop-color="#42b957"/>
      <stop offset="1" stop-color="#16743b"/>
    </linearGradient>
    <filter id="shadow" x="-20%" y="-20%" width="145%" height="150%">
      <feDropShadow dx="4" dy="8" stdDeviation="4" flood-color="#12391f" flood-opacity="0.28"/>
    </filter>
  </defs>
  <g filter="url(#shadow)">
    <path fill="url(#leaf)" d="M8 80C26 25 77-4 120 12c8 46-34 98-90 102C17 105 10 93 8 80Z"/>
    <path fill="#d7ffa0" opacity=".58" d="M25 82c27-39 57-58 86-65C79 36 55 57 31 94c-3-3-5-7-6-12Z"/>
    <path fill="none" stroke="#176b38" stroke-width="5" stroke-linecap="round" d="M23 93c27-37 55-60 86-74"/>
    <path fill="none" stroke="#2f8d46" stroke-width="3" stroke-linecap="round" opacity=".65" d="M55 50c-3 16-3 30 0 44M78 35c0 15 4 29 12 42M45 63c-15 1-27 5-35 11M66 45c-14 0-26 3-36 10"/>
  </g>
</svg>
