<svg xmlns="http://www.w3.org/2000/svg" viewBox="0 0 160 96" role="img" aria-label="water cover">
  <defs>
    <linearGradient id="water" x1="0" x2="0" y1="0" y2="1">
      <stop offset="0" stop-color="#bff7ff" stop-opacity=".9"/>
      <stop offset=".45" stop-color="#55c8e7" stop-opacity=".92"/>
      <stop offset="1" stop-color="#1683ba" stop-opacity=".96"/>
    </linearGradient>
    <filter id="wshadow" x="-10%" y="-30%" width="120%" height="150%">
      <feDropShadow dx="0" dy="5" stdDeviation="4" flood-color="#075273" flood-opacity=".24"/>
    </filter>
  </defs>
  <g filter="url(#wshadow)">
    <path fill="url(#water)" d="M0 42c19-19 39-3 58-9 22-7 34-25 57-17 16 5 28 21 45 8v72H0V42Z"/>
    <path fill="#fff" opacity=".58" d="M14 47c14-9 29-2 42-6 17-5 27-15 42-13 5 1 5 8 0 9-18 4-31 11-48 13-13 2-22-2-36 4-6 3-7-4 0-7Z"/>
    <path fill="none" stroke="#e8ffff" stroke-width="5" stroke-linecap="round" opacity=".75" d="M16 63c17-8 32 4 50-4 17-7 31-16 50-7 11 5 19 7 30 1"/>
  </g>
</svg>
