<svg xmlns="http://www.w3.org/2000/svg" viewBox="0 0 360 250" role="img" aria-label="train car">
  <defs>
    <linearGradient id="body" x1="0" x2="0" y1="0" y2="1">
      <stop offset="0" stop-color="#ffde79"/>
      <stop offset="0.52" stop-color="#ff9f4a"/>
      <stop offset="1" stop-color="#e7713d"/>
    </linearGradient>
    <linearGradient id="window" x1="0" x2="0" y1="0" y2="1">
      <stop offset="0" stop-color="#fffdf0"/>
      <stop offset="1" stop-color="#bdeeff"/>
    </linearGradient>
  </defs>
  <path d="M45 75c0-27 22-49 49-49h172c27 0 49 22 49 49v91H45V75z" fill="url(#body)"/>
  <path d="M57 89c0-22 18-40 40-40h166c22 0 40 18 40 40v64H57V89z" fill="#fff4bd" opacity=".28"/>
  <rect x="91" y="62" width="178" height="76" rx="28" fill="url(#window)" stroke="#fff" stroke-width="10"/>
  <path d="M30 153h300c13 0 23 10 23 23v18c0 13-10 23-23 23H30c-13 0-23-10-23-23v-18c0-13 10-23 23-23z" fill="#f47c3d"/>
  <path d="M25 160h310v18H25z" fill="#ffbd55" opacity=".66"/>
  <circle cx="92" cy="209" r="30" fill="#25344d"/>
  <circle cx="92" cy="209" r="16" fill="#d7e8f7"/>
  <circle cx="268" cy="209" r="30" fill="#25344d"/>
  <circle cx="268" cy="209" r="16" fill="#d7e8f7"/>
  <rect x="13" y="177" width="34" height="18" rx="9" fill="#25344d"/>
  <rect x="313" y="177" width="34" height="18" rx="9" fill="#25344d"/>
</svg>
