<svg xmlns="http://www.w3.org/2000/svg" viewBox="0 0 160 160" role="img" aria-label="blanket">
  <path d="M34 31h92c11 0 20 9 20 20v70c0 10-8 17-18 14l-17-5-18 6-18-6-18 6-17-5c-15-4-25-18-25-34V51c0-11 8-20 19-20z" fill="#ff9fbd"/>
  <path d="M45 44h70c10 0 18 8 18 18v60l-12-4-18 6-18-6-18 6-18-6-13 4V53c0-5 4-9 9-9z" fill="#ffd1df"/>
  <path d="M58 45v78M84 45v74M110 45v78" stroke="#f36d9b" stroke-width="7" opacity=".55"/>
  <path d="M43 73h88M43 99h88" stroke="#fff" stroke-width="7" opacity=".5"/>
</svg>
